<?xml version="1.0" ?><svg xmlns="http://www.w3.org/2000/svg" xmlns:xlink="http://www.w3.org/1999/xlink" width="791pt" height="374pt" viewBox="0.00 0.00 790.5 374.00"><g id="code_table" transform="translate(279 0) scale(2 2) rotate(0) "><rect fill="#151718" height="154" width="256" x="0" y="0"/><rect class="codeline0" fill="#F1E60D" height="23" opacity="0.5" visibility="hidden" width="256" x="0" y="0"/><rect class="codeline1" fill="#F1E60D" height="23" opacity="0.5" visibility="hidden" width="256" x="0" y="22"/><rect class="codeline2" fill="#F1E60D" height="23" opacity="0.5" visibility="hidden" width="256" x="0" y="44"/><rect class="codeline3" fill="#F1E60D" height="23" opacity="0.5" visibility="hidden" width="256" x="0" y="66"/><g class="normal"><text fill="#858585" font-size="12px" x="12" y="38">1<tspan>  </tspan><tspan fill="#A9B7C6" font-size="18px">a</tspan><tspan fill="#A9B7C6" font-size="18px"> </tspan><tspan fill="#A9B7C6" font-size="18px">=</tspan><tspan fill="#A9B7C6" font-size="18px"> </tspan><tspan fill="#6897BB" font-size="18px">10</tspan></text><text fill="#858585" font-size="12px" x="12" y="60">2<tspan>  </tspan><tspan fill="#A9B7C6" font-size="18px">b</tspan><tspan fill="#A9B7C6" font-size="18px"> </tspan><tspan fill="#A9B7C6" font-size="18px">=</tspan><tspan fill="#A9B7C6" font-size="18px"> </tspan><tspan fill="#A9B7C6" font-size="18px">a</tspan><tspan fill="#A9B7C6" font-size="18px"> </tspan><tspan fill="#A9B7C6" font-size="18px">*</tspan><tspan fill="#A9B7C6" font-size="18px"> </tspan><tspan fill="#6897BB" font-size="18px">23</tspan><tspan fill="#A9B7C6" font-size="18px"> </tspan><tspan fill="#A9B7C6" font-size="18px">+</tspan><tspan fill="#A9B7C6" font-size="18px"> </tspan><tspan fill="#6897BB" font-size="18px">12</tspan></text></g><g><rect fill="#A9B7C6" height="66" stroke="#151718" width="256" x="0" y="66"/><rect fill="#151718" height="22" stroke="#A9B7C6" width="70" x="0" y="66"/><text class="alternate" fill="#A9B7C6" font-size="18px" x="10" y="82">Code:</text><rect fill="#151718" height="22" stroke="#A9B7C6" width="186" x="70" y="66"/><text class="alternate code_display0" fill="#151718" font-size="18px" visibility="hidden" x="90" y="82"/><text class="alternate code_display1" fill="#151718" font-size="18px" visibility="hidden" x="90" y="82"><tspan fill="#A9B7C6" font-size="18px">a</tspan><tspan fill="#A9B7C6" font-size="18px"> </tspan><tspan fill="#A9B7C6" font-size="18px">=</tspan><tspan fill="#A9B7C6" font-size="18px"> </tspan><tspan fill="#6897BB" font-size="18px">10</tspan></text><text class="alternate code_display2" fill="#151718" font-size="18px" visibility="hidden" x="90" y="82"><tspan fill="#A9B7C6" font-size="18px">b</tspan><tspan fill="#A9B7C6" font-size="18px"> </tspan><tspan fill="#A9B7C6" font-size="18px">=</tspan><tspan fill="#A9B7C6" font-size="18px"> </tspan><tspan fill="#6897BB" font-size="18px">242</tspan></text><text class="alternate code_display3" fill="#151718" font-size="18px" visibility="hidden" x="90" y="82"/><rect fill="#151718" height="22" stroke="#A9B7C6" width="70" x="0" y="88"/><text class="alternate" fill="#A9B7C6" font-size="18px" x="10" y="104">a</text><rect fill="#151718" height="22" stroke="#A9B7C6" width="186" x="70" y="88"/><text class="alternate var_display0_0" fill="#A9B7C6" font-size="18px" visibility="hidden" x="90" y="104">?</text><text class="alternate var_display1_0" fill="#151718" font-size="18px" visibility="hidden" x="90" y="104"><tspan fill="#6897BB" font-size="18px">10</tspan></text><text class="alternate var_display2_0" fill="#151718" font-size="18px" visibility="hidden" x="90" y="104"><tspan fill="#6897BB" font-size="18px">10</tspan></text><text class="alternate var_display3_0" fill="#A9B7C6" font-size="18px" visibility="hidden" x="90" y="104">?</text><rect fill="#151718" height="22" stroke="#A9B7C6" width="70" x="0" y="110"/><text class="alternate" fill="#A9B7C6" font-size="18px" x="10" y="126">b</text><rect fill="#151718" height="22" stroke="#A9B7C6" width="186" x="70" y="110"/><text class="alternate var_display0_1" fill="#A9B7C6" font-size="18px" visibility="hidden" x="90" y="126">?</text><text class="alternate var_display1_1" fill="#A9B7C6" font-size="18px" visibility="hidden" x="90" y="126">?</text><text class="alternate var_display2_1" fill="#151718" font-size="18px" visibility="hidden" x="90" y="126"><tspan fill="#6897BB" font-size="18px">242</tspan></text><text class="alternate var_display3_1" fill="#A9B7C6" font-size="18px" visibility="hidden" x="90" y="126">?</text></g></g><g id="graph0" class="graph" transform="scale(1 1) rotate(0) translate(4 370)"><title>G</title><polygon fill="#151718" stroke="transparent" points="-4,4 -4,-370 274.5,-370 274.5,4 -4,4"/><g id="node1" class="node line0"><title>0</title><path fill="#a9b7c6" stroke="black" d="M74.5,-366C74.5,-366 44.5,-366 44.5,-366 38.5,-366 32.5,-360 32.5,-354 32.5,-354 32.5,-342 32.5,-342 32.5,-336 38.5,-330 44.5,-330 44.5,-330 74.5,-330 74.5,-330 80.5,-330 86.5,-336 86.5,-342 86.5,-342 86.5,-354 86.5,-354 86.5,-360 80.5,-366 74.5,-366"/><text text-anchor="middle" x="59.5" y="-344.3" font-family="Times,serif" font-size="14.00">Start</text></g><g id="node3" class="node line1"><title>1</title><polygon fill="#a9b7c6" stroke="black" points="119,-265 0,-265 0,-229 119,-229 119,-265"/><text text-anchor="middle" x="59.5" y="-243.3" font-family="Times,serif" font-size="14.00">1: Assignment</text></g><g id="edge1" class="edge"><title>0-&gt;1</title><path fill="none" stroke="#ffffff" d="M59.5,-329.76C59.5,-314.71 59.5,-292.62 59.5,-275.19"/><polygon fill="#ffffff" stroke="#ffffff" points="63,-275.05 59.5,-265.05 56,-275.05 63,-275.05"/><text text-anchor="start" x="67" y="-293.3" font-family="Times,serif" font-size="14.00" fill="#ffffff">Start</text></g><g id="node2" class="node line-1"><title>-1</title><path fill="#a9b7c6" stroke="black" d="M74.5,-36C74.5,-36 44.5,-36 44.5,-36 38.5,-36 32.5,-30 32.5,-24 32.5,-24 32.5,-12 32.5,-12 32.5,-6 38.5,0 44.5,0 44.5,0 74.5,0 74.5,0 80.5,0 86.5,-6 86.5,-12 86.5,-12 86.5,-24 86.5,-24 86.5,-30 80.5,-36 74.5,-36"/><text text-anchor="middle" x="59.5" y="-14.3" font-family="Times,serif" font-size="14.00">End</text></g><g id="node4" class="node line2"><title>2</title><polygon fill="#a9b7c6" stroke="black" points="119,-164 0,-164 0,-128 119,-128 119,-164"/><text text-anchor="middle" x="59.5" y="-142.3" font-family="Times,serif" font-size="14.00">2: Assignment</text></g><g id="edge2" class="edge"><title>1-&gt;2</title><path fill="none" stroke="#ffffff" d="M59.5,-228.76C59.5,-213.71 59.5,-191.62 59.5,-174.19"/><polygon fill="#ffffff" stroke="#ffffff" points="63,-174.05 59.5,-164.05 56,-174.05 63,-174.05"/><text text-anchor="start" x="67" y="-192.3" font-family="Times,serif" font-size="14.00" fill="#ffffff">Move to next line</text></g><g id="edge3" class="edge"><title>2-&gt;-1</title><path fill="none" stroke="#ffffff" d="M59.5,-127.74C59.5,-106.73 59.5,-70.97 59.5,-46.23"/><polygon fill="#ffffff" stroke="#ffffff" points="63,-46.05 59.5,-36.05 56,-46.05 63,-46.05"/><text text-anchor="start" x="67" y="-91.8" font-family="Times,serif" font-size="14.00" fill="#ffffff">Move to next line, which is </text><text text-anchor="start" x="82.5" y="-64.8" font-family="Times,serif" font-size="14.00" fill="#ffffff">the end of the program</text></g></g><defs><style type="text/css"><![CDATA[svg text { -webkit-user-select: none; -moz-user-select: none; -ms-user-select: none; user-select: none; } svg text::selection { background: none; } .normal { font-family: "Courier"; font-size: 18; } @keyframes code0 { 0.00% { visibility : hidden; } 0.00% { visibility : visible; }  24.99% { visibility : visible; } 25.00% { visibility : hidden; }100% { visibility : hidden; } }.code_display0, .var_display0_0, .var_display0_1 { animation: code0 8s linear infinite; }@keyframes code1 { 0% { visibility : hidden; } 25.00% { visibility : hidden; } 25.01% { visibility : visible; }  49.99% { visibility : visible; } 50.00% { visibility : hidden; }100% { visibility : hidden; } }.code_display1, .var_display1_0, .var_display1_1 { animation: code1 8s linear infinite; }@keyframes code2 { 0% { visibility : hidden; } 50.00% { visibility : hidden; } 50.01% { visibility : visible; }  74.99% { visibility : visible; } 75.00% { visibility : hidden; }100% { visibility : hidden; } }.code_display2, .var_display2_0, .var_display2_1 { animation: code2 8s linear infinite; }@keyframes code3 { 0% { visibility : hidden; } 75.00% { visibility : hidden; } 75.01% { visibility : visible; }  100.00% { visibility : visible; } 100.00% { visibility : hidden; }}.code_display3, .var_display3_0, .var_display3_1 { animation: code3 8s linear infinite; }@keyframes highlight_flow-1 { 0% { fill : #A9B7C6; } 75.00% { fill : #A9B7C6; } 75.01% { fill : #AEF359; }  100.00% { fill : #AEF359; } 100.00% { fill : #A9B7C6; }}.line-1 polygon, .line-1 path { animation: highlight_flow-1 8s linear infinite; }@keyframes highlight_code-1 { 0% { visibility : hidden; } 75.00% { visibility : hidden; } 75.01% { visibility : visible; }  100.00% { visibility : visible; } 100.00% { visibility : hidden; }}.codeline-1 { animation: highlight_code-1 8s linear infinite; }@keyframes highlight_flow0 { 0.00% { fill : #A9B7C6; } 0.00% { fill : #AEF359; }  24.99% { fill : #AEF359; } 25.00% { fill : #A9B7C6; }100% { fill : #A9B7C6; } }.line0 polygon, .line0 path { animation: highlight_flow0 8s linear infinite; }@keyframes highlight_code0 { 0.00% { visibility : hidden; } 0.00% { visibility : visible; }  24.99% { visibility : visible; } 25.00% { visibility : hidden; }100% { visibility : hidden; } }.codeline0 { animation: highlight_code0 8s linear infinite; }@keyframes highlight_flow1 { 0% { fill : #A9B7C6; } 25.00% { fill : #A9B7C6; } 25.01% { fill : #AEF359; }  49.99% { fill : #AEF359; } 50.00% { fill : #A9B7C6; }100% { fill : #A9B7C6; } }.line1 polygon, .line1 path { animation: highlight_flow1 8s linear infinite; }@keyframes highlight_code1 { 0% { visibility : hidden; } 25.00% { visibility : hidden; } 25.01% { visibility : visible; }  49.99% { visibility : visible; } 50.00% { visibility : hidden; }100% { visibility : hidden; } }.codeline1 { animation: highlight_code1 8s linear infinite; }@keyframes highlight_flow2 { 0% { fill : #A9B7C6; } 50.00% { fill : #A9B7C6; } 50.01% { fill : #AEF359; }  74.99% { fill : #AEF359; } 75.00% { fill : #A9B7C6; }100% { fill : #A9B7C6; } }.line2 polygon, .line2 path { animation: highlight_flow2 8s linear infinite; }@keyframes highlight_code2 { 0% { visibility : hidden; } 50.00% { visibility : hidden; } 50.01% { visibility : visible; }  74.99% { visibility : visible; } 75.00% { visibility : hidden; }100% { visibility : hidden; } }.codeline2 { animation: highlight_code2 8s linear infinite; }]]></style></defs></svg>