<?xml version="1.0" encoding="UTF-8" standalone="no"?>
<!DOCTYPE svg PUBLIC "-//W3C//DTD SVG 1.1//EN"
 "http://www.w3.org/Graphics/SVG/1.1/DTD/svg11.dtd">
<!-- Generated by graphviz version 2.43.0 (0)
 -->
<!-- Title: G Pages: 1 -->
<svg width="279pt" height="374pt"
 viewBox="0.00 0.00 278.50 374.00" xmlns="http://www.w3.org/2000/svg" xmlns:xlink="http://www.w3.org/1999/xlink">
<g id="graph0" class="graph" transform="scale(1 1) rotate(0) translate(4 370)">
<title>G</title>
<polygon fill="#151718" stroke="transparent" points="-4,4 -4,-370 274.5,-370 274.5,4 -4,4"/>
<!-- 0 -->
<g id="node1" class="node line0">
<title>0</title>
<path fill="#a9b7c6" stroke="black" d="M74.5,-366C74.5,-366 44.5,-366 44.5,-366 38.5,-366 32.5,-360 32.5,-354 32.5,-354 32.5,-342 32.5,-342 32.5,-336 38.5,-330 44.5,-330 44.5,-330 74.5,-330 74.5,-330 80.5,-330 86.5,-336 86.5,-342 86.5,-342 86.5,-354 86.5,-354 86.5,-360 80.5,-366 74.5,-366"/>
<text text-anchor="middle" x="59.5" y="-344.3" font-family="Times,serif" font-size="14.00">Start</text>
</g>
<!-- 1 -->
<g id="node3" class="node line1">
<title>1</title>
<polygon fill="#a9b7c6" stroke="black" points="119,-265 0,-265 0,-229 119,-229 119,-265"/>
<text text-anchor="middle" x="59.5" y="-243.3" font-family="Times,serif" font-size="14.00">1: Assignment</text>
</g>
<!-- 0&#45;&gt;1 -->
<g id="edge1" class="edge">
<title>0&#45;&gt;1</title>
<path fill="none" stroke="#ffffff" d="M59.5,-329.76C59.5,-314.71 59.5,-292.62 59.5,-275.19"/>
<polygon fill="#ffffff" stroke="#ffffff" points="63,-275.05 59.5,-265.05 56,-275.05 63,-275.05"/>
<text text-anchor="start" x="67" y="-293.3" font-family="Times,serif" font-size="14.00" fill="#ffffff">Start</text>
</g>
<!-- &#45;1 -->
<g id="node2" class="node line&#45;1">
<title>&#45;1</title>
<path fill="#a9b7c6" stroke="black" d="M74.5,-36C74.5,-36 44.5,-36 44.5,-36 38.5,-36 32.5,-30 32.5,-24 32.5,-24 32.5,-12 32.5,-12 32.5,-6 38.5,0 44.5,0 44.5,0 74.5,0 74.5,0 80.5,0 86.5,-6 86.5,-12 86.5,-12 86.5,-24 86.5,-24 86.5,-30 80.5,-36 74.5,-36"/>
<text text-anchor="middle" x="59.5" y="-14.3" font-family="Times,serif" font-size="14.00">End</text>
</g>
<!-- 2 -->
<g id="node4" class="node line2">
<title>2</title>
<polygon fill="#a9b7c6" stroke="black" points="119,-164 0,-164 0,-128 119,-128 119,-164"/>
<text text-anchor="middle" x="59.5" y="-142.3" font-family="Times,serif" font-size="14.00">2: Assignment</text>
</g>
<!-- 1&#45;&gt;2 -->
<g id="edge2" class="edge">
<title>1&#45;&gt;2</title>
<path fill="none" stroke="#ffffff" d="M59.5,-228.76C59.5,-213.71 59.5,-191.62 59.5,-174.19"/>
<polygon fill="#ffffff" stroke="#ffffff" points="63,-174.05 59.5,-164.05 56,-174.05 63,-174.05"/>
<text text-anchor="start" x="67" y="-192.3" font-family="Times,serif" font-size="14.00" fill="#ffffff">Move to next line</text>
</g>
<!-- 2&#45;&gt;&#45;1 -->
<g id="edge3" class="edge">
<title>2&#45;&gt;&#45;1</title>
<path fill="none" stroke="#ffffff" d="M59.5,-127.74C59.5,-106.73 59.5,-70.97 59.5,-46.23"/>
<polygon fill="#ffffff" stroke="#ffffff" points="63,-46.05 59.5,-36.05 56,-46.05 63,-46.05"/>
<text text-anchor="start" x="67" y="-91.8" font-family="Times,serif" font-size="14.00" fill="#ffffff">Move to next line, which is </text>
<text text-anchor="start" x="82.5" y="-64.8" font-family="Times,serif" font-size="14.00" fill="#ffffff">the end of the program</text>
</g>
</g>
</svg>
