<?xml version="1.0" encoding="UTF-8" standalone="no"?>
<!DOCTYPE svg PUBLIC "-//W3C//DTD SVG 1.1//EN"
 "http://www.w3.org/Graphics/SVG/1.1/DTD/svg11.dtd">
<!-- Generated by graphviz version 2.43.0 (0)
 -->
<!-- Title: G Pages: 1 -->
<svg width="487pt" height="313pt"
 viewBox="0.00 0.00 486.50 313.00" xmlns="http://www.w3.org/2000/svg" xmlns:xlink="http://www.w3.org/1999/xlink">
<g id="graph0" class="graph" transform="scale(1 1) rotate(0) translate(4 309)">
<title>G</title>
<polygon fill="#151718" stroke="transparent" points="-4,4 -4,-309 482.5,-309 482.5,4 -4,4"/>
<!-- a -->
<g id="node1" class="node nodea">
<title>a</title>
<polygon fill="#a9b7c6" stroke="black" points="208,-38 0,-38 0,0 208,0 208,-38"/>
<text text-anchor="middle" x="104" y="-22.8" font-family="Times,serif" font-size="14.00">Value loaded from variable</text>
<text text-anchor="middle" x="104" y="-7.8" font-family="Times,serif" font-size="14.00">a =&gt; 10</text>
</g>
<!-- b -->
<g id="node2" class="node nodeb">
<title>b</title>
<polygon fill="#a9b7c6" stroke="black" points="411.5,-38 226.5,-38 226.5,0 411.5,0 411.5,-38"/>
<text text-anchor="middle" x="319" y="-22.8" font-family="Times,serif" font-size="14.00">Literal constant in code</text>
<text text-anchor="middle" x="319" y="-7.8" font-family="Times,serif" font-size="14.00">23 =&gt; 23</text>
</g>
<!-- c -->
<g id="node3" class="node nodec">
<title>c</title>
<polygon fill="#a9b7c6" stroke="black" points="275,-127 147,-127 147,-89 275,-89 275,-127"/>
<text text-anchor="middle" x="211" y="-111.8" font-family="Times,serif" font-size="14.00">Multiplication</text>
<text text-anchor="middle" x="211" y="-96.8" font-family="Times,serif" font-size="14.00">10 * 23 =&gt; 230</text>
</g>
<!-- c&#45;&gt;a -->
<g id="edge1" class="edge edgeac">
<title>c&#45;&gt;a</title>
<path fill="none" stroke="#ffffff" d="M180.67,-82.34C163.31,-68.23 141.92,-50.83 126.14,-38"/>
<polygon fill="#ffffff" stroke="#ffffff" points="178.86,-85.38 188.83,-88.97 183.28,-79.95 178.86,-85.38"/>
<text text-anchor="middle" x="173.5" y="-59.8" font-family="Times,serif" font-size="14.00" fill="#ffffff">10</text>
</g>
<!-- c&#45;&gt;b -->
<g id="edge2" class="edge edgebc">
<title>c&#45;&gt;b</title>
<path fill="none" stroke="#ffffff" d="M241.61,-82.34C259.13,-68.23 280.73,-50.83 296.65,-38"/>
<polygon fill="#ffffff" stroke="#ffffff" points="238.97,-79.97 233.38,-88.97 243.36,-85.43 238.97,-79.97"/>
<text text-anchor="middle" x="281.5" y="-59.8" font-family="Times,serif" font-size="14.00" fill="#ffffff">23</text>
</g>
<!-- d -->
<g id="node4" class="node noded">
<title>d</title>
<polygon fill="#a9b7c6" stroke="black" points="478.5,-127 293.5,-127 293.5,-89 478.5,-89 478.5,-127"/>
<text text-anchor="middle" x="386" y="-111.8" font-family="Times,serif" font-size="14.00">Literal constant in code</text>
<text text-anchor="middle" x="386" y="-96.8" font-family="Times,serif" font-size="14.00">12 =&gt; 12</text>
</g>
<!-- e -->
<g id="node5" class="node nodee">
<title>e</title>
<polygon fill="#a9b7c6" stroke="black" points="369.5,-216 226.5,-216 226.5,-178 369.5,-178 369.5,-216"/>
<text text-anchor="middle" x="298" y="-200.8" font-family="Times,serif" font-size="14.00">Addition</text>
<text text-anchor="middle" x="298" y="-185.8" font-family="Times,serif" font-size="14.00">230 + 12 =&gt; 242</text>
</g>
<!-- e&#45;&gt;c -->
<g id="edge3" class="edge edgece">
<title>e&#45;&gt;c</title>
<path fill="none" stroke="#ffffff" d="M272.57,-170.57C258.6,-156.6 241.6,-139.6 229,-127"/>
<polygon fill="#ffffff" stroke="#ffffff" points="270.43,-173.38 279.97,-177.97 275.38,-168.43 270.43,-173.38"/>
<text text-anchor="middle" x="274" y="-148.8" font-family="Times,serif" font-size="14.00" fill="#ffffff">230</text>
</g>
<!-- e&#45;&gt;d -->
<g id="edge4" class="edge edgede">
<title>e&#45;&gt;d</title>
<path fill="none" stroke="#ffffff" d="M323.72,-170.57C337.86,-156.6 355.05,-139.6 367.79,-127"/>
<polygon fill="#ffffff" stroke="#ffffff" points="320.88,-168.45 316.23,-177.97 325.81,-173.43 320.88,-168.45"/>
<text text-anchor="middle" x="357.5" y="-148.8" font-family="Times,serif" font-size="14.00" fill="#ffffff">12</text>
</g>
<!-- f -->
<g id="node6" class="node nodef">
<title>f</title>
<polygon fill="#a9b7c6" stroke="black" points="348.5,-305 247.5,-305 247.5,-267 348.5,-267 348.5,-305"/>
<text text-anchor="middle" x="298" y="-289.8" font-family="Times,serif" font-size="14.00">Assignment</text>
<text text-anchor="middle" x="298" y="-274.8" font-family="Times,serif" font-size="14.00">b = 242</text>
</g>
<!-- f&#45;&gt;e -->
<g id="edge5" class="edge edgeef">
<title>f&#45;&gt;e</title>
<path fill="none" stroke="#ffffff" d="M298,-256.82C298,-243.41 298,-227.78 298,-216"/>
<polygon fill="#ffffff" stroke="#ffffff" points="294.5,-256.97 298,-266.97 301.5,-256.97 294.5,-256.97"/>
<text text-anchor="middle" x="312" y="-237.8" font-family="Times,serif" font-size="14.00" fill="#ffffff">242</text>
</g>
</g>
</svg>
